<svg width="134" height="17" viewBox="0 0 134 17" fill="none" xmlns="http://www.w3.org/2000/svg">
<mask id="path-1-outside-1_918_148" maskUnits="userSpaceOnUse" x="0" y="-0.257812" width="134" height="17" fill="black">
<rect fill="white" y="-0.257812" width="134" height="17"/>
<path d="M1 12.4432V1.35162H4.18748C5.12205 1.35162 5.96004 1.55984 6.70143 1.97628C7.44283 2.38765 8.01976 2.9793 8.43222 3.75125C8.84991 4.52319 9.05875 5.40179 9.05875 6.38704V7.40783C9.05875 8.39816 8.85252 9.27675 8.44005 10.0436C8.02759 10.8105 7.44544 11.4021 6.6936 11.8186C5.94698 12.235 5.08811 12.4432 4.11699 12.4432H1ZM1.96329 2.1515V11.651H4.12482C5.32567 11.651 6.28896 11.265 7.0147 10.4931C7.74043 9.71605 8.10329 8.66732 8.10329 7.34689V6.3718C8.10329 5.09708 7.74565 4.07628 7.03036 3.30941C6.31507 2.54255 5.37266 2.15657 4.20314 2.1515H1.96329Z"/>
<path d="M14.5722 12.5956C13.8517 12.5956 13.1991 12.4229 12.6143 12.0776C12.0348 11.7322 11.5831 11.2523 11.2594 10.6378C10.9357 10.0182 10.7739 9.325 10.7739 8.55813V8.23056C10.7739 7.4383 10.9305 6.72476 11.2438 6.08994C11.5623 5.45512 12.0034 4.95741 12.5673 4.59683C13.1312 4.23118 13.7421 4.04835 14.3999 4.04835C15.4285 4.04835 16.243 4.39115 16.8434 5.07676C17.449 5.75729 17.7519 6.68921 17.7519 7.87252V8.38292H11.7058V8.55813C11.7058 9.49259 11.98 10.2722 12.5282 10.8968C13.0816 11.5164 13.776 11.8262 14.6114 11.8262C15.1126 11.8262 15.5538 11.7373 15.9349 11.5596C16.3213 11.3818 16.6711 11.0974 16.9844 10.7064L17.5717 11.1406C16.8826 12.1106 15.8827 12.5956 14.5722 12.5956ZM14.3999 4.82537C13.6951 4.82537 13.0999 5.07676 12.6143 5.57954C12.134 6.08232 11.8416 6.75777 11.7372 7.6059H16.8199V7.50686C16.7938 6.71461 16.5615 6.06962 16.1229 5.57192C15.6843 5.07422 15.11 4.82537 14.3999 4.82537ZM15.4415 0.742188H16.5771L14.768 2.87519H13.9457L15.4415 0.742188Z"/>
<path d="M22.7093 11.8262C23.3619 11.8262 23.9075 11.6485 24.3461 11.293C24.7899 10.9324 25.0301 10.4677 25.0666 9.89888H25.9673C25.9411 10.4017 25.7793 10.8613 25.4817 11.2777C25.1841 11.6891 24.7873 12.0116 24.2913 12.2452C23.8005 12.4788 23.2732 12.5956 22.7093 12.5956C21.5972 12.5956 20.7148 12.2198 20.0622 11.4682C19.4148 10.7165 19.0911 9.70589 19.0911 8.43625V8.162C19.0911 7.34943 19.2373 6.63081 19.5296 6.00614C19.822 5.38148 20.2397 4.89901 20.7827 4.55875C21.3309 4.21848 21.9705 4.04835 22.7015 4.04835C23.6308 4.04835 24.3957 4.31751 24.9961 4.85584C25.6018 5.39417 25.9255 6.10264 25.9673 6.98123H25.0666C25.0248 6.33625 24.7847 5.81569 24.3461 5.41957C23.9128 5.02344 23.3645 4.82537 22.7015 4.82537C21.8556 4.82537 21.1978 5.12247 20.7279 5.71666C20.2632 6.31086 20.0309 7.14375 20.0309 8.21533V8.48195C20.0309 9.53322 20.2632 10.3534 20.7279 10.9425C21.1978 11.5316 21.8583 11.8262 22.7093 11.8262Z"/>
<path d="M27.33 8.20009C27.33 7.40783 27.4866 6.69429 27.7999 6.05947C28.1183 5.42464 28.5647 4.93202 29.1391 4.5816C29.7186 4.2261 30.3739 4.04835 31.1048 4.04835C32.2326 4.04835 33.1463 4.43432 33.8459 5.20626C34.5455 5.97313 34.8953 6.99139 34.8953 8.26103V8.45148C34.8953 9.24882 34.7361 9.96744 34.4176 10.6073C34.1043 11.2422 33.6605 11.7322 33.0862 12.0776C32.5119 12.4229 31.8566 12.5956 31.1205 12.5956C29.9979 12.5956 29.0842 12.2122 28.3794 11.4453C27.6798 10.6734 27.33 9.65257 27.33 8.38292V8.20009ZM28.2698 8.45148C28.2698 9.43673 28.5308 10.2468 29.0529 10.8816C29.5802 11.5113 30.2694 11.8262 31.1205 11.8262C31.9663 11.8262 32.6502 11.5113 33.1724 10.8816C33.6997 10.2468 33.9634 9.41133 33.9634 8.3753V8.20009C33.9634 7.57035 33.8433 6.99393 33.6031 6.47083C33.3629 5.94774 33.0262 5.54399 32.5928 5.25959C32.1595 4.97011 31.6635 4.82537 31.1048 4.82537C30.2694 4.82537 29.5881 5.14532 29.0607 5.78522C28.5334 6.42005 28.2698 7.25293 28.2698 8.28389V8.45148Z"/>
<path d="M40.7534 4.97773C40.555 4.94218 40.3435 4.9244 40.119 4.9244C39.5343 4.9244 39.0383 5.08438 38.631 5.40433C38.229 5.7192 37.9418 6.17881 37.7695 6.78317V12.4432H36.8376V4.2007H37.7539L37.7695 5.51098C38.2655 4.53589 39.0617 4.04835 40.1582 4.04835C40.4192 4.04835 40.6255 4.08136 40.7769 4.14738L40.7534 4.97773Z"/>
<path d="M56.1116 9.33532C55.9835 10.5034 55.5606 11.3972 54.843 12.0168C54.1305 12.6364 53.1796 12.9462 51.9904 12.9462C51.16 12.9462 50.4244 12.7405 49.7837 12.3291C49.148 11.9178 48.656 11.3363 48.3074 10.5847C47.9588 9.82794 47.782 8.96458 47.7769 7.99457V6.55479C47.7769 5.56955 47.9511 4.69603 48.2997 3.93424C48.6483 3.17245 49.148 2.58588 49.799 2.17451C50.4552 1.75807 51.2087 1.54985 52.0596 1.54985C53.2591 1.54985 54.2048 1.87234 54.8968 2.51732C55.5939 3.15722 55.9989 4.04343 56.1116 5.17596H55.1582C54.9224 3.2918 53.8895 2.34972 52.0596 2.34972C51.0446 2.34972 50.2347 2.72554 49.6299 3.47717C49.0302 4.2288 48.7303 5.26737 48.7303 6.59288V7.94886C48.7303 9.22867 49.0225 10.2495 49.6068 11.0113C50.1963 11.773 50.9908 12.1539 51.9904 12.1539C52.9797 12.1539 53.7255 11.9203 54.2279 11.4531C54.7302 10.9808 55.0403 10.2749 55.1582 9.33532H56.1116Z"/>
<path d="M57.6879 8.55068C57.6879 7.75842 57.8417 7.04488 58.1492 6.41005C58.4619 5.77523 58.9002 5.28261 59.464 4.93218C60.033 4.57668 60.6763 4.39893 61.3939 4.39893C62.5011 4.39893 63.3982 4.78491 64.0851 5.55685C64.7719 6.32372 65.1154 7.34197 65.1154 8.61162V8.80207C65.1154 9.59941 64.959 10.318 64.6463 10.9579C64.3388 11.5927 63.9031 12.0828 63.3392 12.4282C62.7754 12.7735 62.1321 12.9462 61.4093 12.9462C60.3072 12.9462 59.4102 12.5628 58.7182 11.7959C58.0313 11.0239 57.6879 10.0032 57.6879 8.73351V8.55068ZM58.6105 8.80207C58.6105 9.78731 58.8668 10.5973 59.3794 11.2322C59.8972 11.8619 60.5738 12.1768 61.4093 12.1768C62.2397 12.1768 62.9112 11.8619 63.4238 11.2322C63.9415 10.5973 64.2004 9.76192 64.2004 8.72589V8.55068C64.2004 7.92093 64.0825 7.34451 63.8467 6.82142C63.6109 6.29832 63.2803 5.89458 62.8548 5.61018C62.4294 5.3207 61.9424 5.17596 61.3939 5.17596C60.5738 5.17596 59.9048 5.49591 59.3871 6.13581C58.8694 6.77063 58.6105 7.60352 58.6105 8.63447V8.80207Z"/>
<path d="M68.0525 12.7938H67.1299V1.09277H68.0525V12.7938Z"/>
<path d="M70.0517 8.55068C70.0517 7.75842 70.2054 7.04488 70.513 6.41005C70.8257 5.77523 71.2639 5.28261 71.8278 4.93218C72.3968 4.57668 73.0401 4.39893 73.7577 4.39893C74.8649 4.39893 75.762 4.78491 76.4488 5.55685C77.1357 6.32372 77.4791 7.34197 77.4791 8.61162V8.80207C77.4791 9.59941 77.3228 10.318 77.0101 10.9579C76.7026 11.5927 76.2669 12.0828 75.703 12.4282C75.1392 12.7735 74.4958 12.9462 73.7731 12.9462C72.671 12.9462 71.774 12.5628 71.082 11.7959C70.3951 11.0239 70.0517 10.0032 70.0517 8.73351V8.55068ZM70.9743 8.80207C70.9743 9.78731 71.2306 10.5973 71.7432 11.2322C72.2609 11.8619 72.9376 12.1768 73.7731 12.1768C74.6035 12.1768 75.275 11.8619 75.7876 11.2322C76.3053 10.5973 76.5642 9.76192 76.5642 8.72589V8.55068C76.5642 7.92093 76.4463 7.34451 76.2105 6.82142C75.9747 6.29832 75.6441 5.89458 75.2186 5.61018C74.7932 5.3207 74.3062 5.17596 73.7577 5.17596C72.9376 5.17596 72.2686 5.49591 71.7509 6.13581C71.2332 6.77063 70.9743 7.60352 70.9743 8.63447V8.80207Z"/>
<path d="M83.2305 5.32831C83.0357 5.29276 82.8281 5.27499 82.6077 5.27499C82.0336 5.27499 81.5466 5.43496 81.1468 5.75492C80.7521 6.06979 80.4701 6.5294 80.301 7.13375V12.7938H79.386V4.55129H80.2856L80.301 5.86157C80.7879 4.88648 81.5697 4.39893 82.6461 4.39893C82.9024 4.39893 83.1049 4.43194 83.2535 4.49797L83.2305 5.32831Z"/>
<path d="M96.543 7.49162H91.2156V11.9366H97.3409V12.7149H90.2534V1.81934H97.3018V2.60507H91.2156V6.71336H96.543V7.49162Z"/>
<path d="M101.816 7.90319L104.1 4.61806H105.211L102.34 8.59165L105.336 12.7149H104.233L101.823 9.28759L99.4139 12.7149H98.3109L101.299 8.59165L98.4283 4.61806H99.5313L101.816 7.90319Z"/>
<path d="M113.753 8.7488C113.753 10.011 113.461 11.0137 112.877 11.7571C112.293 12.4954 111.511 12.8646 110.53 12.8646C109.372 12.8646 108.486 12.4754 107.87 11.6972V15.8279H106.939V4.61806H107.808L107.855 5.76299C108.465 4.89993 109.349 4.4684 110.507 4.4684C111.518 4.4684 112.311 4.83507 112.885 5.56843C113.464 6.30178 113.753 7.3195 113.753 8.62158V8.7488ZM112.814 8.59165C112.814 7.55897 112.593 6.74329 112.149 6.14464C111.706 5.54598 111.088 5.24665 110.295 5.24665C109.722 5.24665 109.229 5.37885 108.817 5.64326C108.405 5.90767 108.089 6.29181 107.87 6.79568V10.6795C108.095 11.1434 108.415 11.4976 108.833 11.7421C109.25 11.9865 109.743 12.1088 110.311 12.1088C111.099 12.1088 111.711 11.8094 112.149 11.2108C112.593 10.6071 112.814 9.73409 112.814 8.59165Z"/>
<path d="M119.112 12.8646C118.392 12.8646 117.74 12.6949 117.156 12.3557C116.577 12.0165 116.126 11.545 115.803 10.9414C115.479 10.3327 115.318 9.65177 115.318 8.89846V8.57668C115.318 7.79843 115.474 7.0975 115.787 6.4739C116.105 5.8503 116.546 5.36139 117.109 5.00719C117.672 4.64799 118.283 4.4684 118.94 4.4684C119.967 4.4684 120.781 4.80514 121.38 5.47863C121.985 6.14713 122.288 7.06258 122.288 8.22497V8.72635H116.249V8.89846C116.249 9.8164 116.522 10.5822 117.07 11.1958C117.623 11.8044 118.316 12.1088 119.151 12.1088C119.652 12.1088 120.092 12.0215 120.473 11.8469C120.859 11.6722 121.208 11.3929 121.521 11.0087L122.108 11.4353C121.42 12.3881 120.421 12.8646 119.112 12.8646ZM118.94 5.23168C118.236 5.23168 117.641 5.47863 117.156 5.97252C116.676 6.46642 116.384 7.12993 116.28 7.96306H121.357V7.86578C121.331 7.08752 121.099 6.45394 120.661 5.96504C120.223 5.47614 119.649 5.23168 118.94 5.23168Z"/>
<path d="M128.022 5.38135C127.824 5.34643 127.613 5.32897 127.388 5.32897C126.804 5.32897 126.309 5.48611 125.902 5.80041C125.5 6.10972 125.214 6.5612 125.041 7.15487V12.7149H124.111V4.61806H125.026L125.041 5.90517C125.537 4.94732 126.332 4.4684 127.427 4.4684C127.688 4.4684 127.894 4.50082 128.045 4.56568L128.022 5.38135Z"/>
<path d="M131.354 2.54521V4.61806H133.107V5.35142H131.354V10.7468C131.354 11.1958 131.438 11.5301 131.605 11.7496C131.777 11.9691 132.061 12.0788 132.458 12.0788C132.614 12.0788 132.867 12.0539 133.216 12.004L133.255 12.7374C133.01 12.8222 132.677 12.8646 132.254 12.8646C131.613 12.8646 131.146 12.6875 130.854 12.3333C130.562 11.9741 130.416 11.4477 130.416 10.7543V5.35142H128.859V4.61806H130.416V2.54521H131.354Z"/>
</mask>
<path d="M1 12.4432V1.35162H4.18748C5.12205 1.35162 5.96004 1.55984 6.70143 1.97628C7.44283 2.38765 8.01976 2.9793 8.43222 3.75125C8.84991 4.52319 9.05875 5.40179 9.05875 6.38704V7.40783C9.05875 8.39816 8.85252 9.27675 8.44005 10.0436C8.02759 10.8105 7.44544 11.4021 6.6936 11.8186C5.94698 12.235 5.08811 12.4432 4.11699 12.4432H1ZM1.96329 2.1515V11.651H4.12482C5.32567 11.651 6.28896 11.265 7.0147 10.4931C7.74043 9.71605 8.10329 8.66732 8.10329 7.34689V6.3718C8.10329 5.09708 7.74565 4.07628 7.03036 3.30941C6.31507 2.54255 5.37266 2.15657 4.20314 2.1515H1.96329Z" fill="white"/>
<path d="M14.5722 12.5956C13.8517 12.5956 13.1991 12.4229 12.6143 12.0776C12.0348 11.7322 11.5831 11.2523 11.2594 10.6378C10.9357 10.0182 10.7739 9.325 10.7739 8.55813V8.23056C10.7739 7.4383 10.9305 6.72476 11.2438 6.08994C11.5623 5.45512 12.0034 4.95741 12.5673 4.59683C13.1312 4.23118 13.7421 4.04835 14.3999 4.04835C15.4285 4.04835 16.243 4.39115 16.8434 5.07676C17.449 5.75729 17.7519 6.68921 17.7519 7.87252V8.38292H11.7058V8.55813C11.7058 9.49259 11.98 10.2722 12.5282 10.8968C13.0816 11.5164 13.776 11.8262 14.6114 11.8262C15.1126 11.8262 15.5538 11.7373 15.9349 11.5596C16.3213 11.3818 16.6711 11.0974 16.9844 10.7064L17.5717 11.1406C16.8826 12.1106 15.8827 12.5956 14.5722 12.5956ZM14.3999 4.82537C13.6951 4.82537 13.0999 5.07676 12.6143 5.57954C12.134 6.08232 11.8416 6.75777 11.7372 7.6059H16.8199V7.50686C16.7938 6.71461 16.5615 6.06962 16.1229 5.57192C15.6843 5.07422 15.11 4.82537 14.3999 4.82537ZM15.4415 0.742188H16.5771L14.768 2.87519H13.9457L15.4415 0.742188Z" fill="white"/>
<path d="M22.7093 11.8262C23.3619 11.8262 23.9075 11.6485 24.3461 11.293C24.7899 10.9324 25.0301 10.4677 25.0666 9.89888H25.9673C25.9411 10.4017 25.7793 10.8613 25.4817 11.2777C25.1841 11.6891 24.7873 12.0116 24.2913 12.2452C23.8005 12.4788 23.2732 12.5956 22.7093 12.5956C21.5972 12.5956 20.7148 12.2198 20.0622 11.4682C19.4148 10.7165 19.0911 9.70589 19.0911 8.43625V8.162C19.0911 7.34943 19.2373 6.63081 19.5296 6.00614C19.822 5.38148 20.2397 4.89901 20.7827 4.55875C21.3309 4.21848 21.9705 4.04835 22.7015 4.04835C23.6308 4.04835 24.3957 4.31751 24.9961 4.85584C25.6018 5.39417 25.9255 6.10264 25.9673 6.98123H25.0666C25.0248 6.33625 24.7847 5.81569 24.3461 5.41957C23.9128 5.02344 23.3645 4.82537 22.7015 4.82537C21.8556 4.82537 21.1978 5.12247 20.7279 5.71666C20.2632 6.31086 20.0309 7.14375 20.0309 8.21533V8.48195C20.0309 9.53322 20.2632 10.3534 20.7279 10.9425C21.1978 11.5316 21.8583 11.8262 22.7093 11.8262Z" fill="white"/>
<path d="M27.33 8.20009C27.33 7.40783 27.4866 6.69429 27.7999 6.05947C28.1183 5.42464 28.5647 4.93202 29.1391 4.5816C29.7186 4.2261 30.3739 4.04835 31.1048 4.04835C32.2326 4.04835 33.1463 4.43432 33.8459 5.20626C34.5455 5.97313 34.8953 6.99139 34.8953 8.26103V8.45148C34.8953 9.24882 34.7361 9.96744 34.4176 10.6073C34.1043 11.2422 33.6605 11.7322 33.0862 12.0776C32.5119 12.4229 31.8566 12.5956 31.1205 12.5956C29.9979 12.5956 29.0842 12.2122 28.3794 11.4453C27.6798 10.6734 27.33 9.65257 27.33 8.38292V8.20009ZM28.2698 8.45148C28.2698 9.43673 28.5308 10.2468 29.0529 10.8816C29.5802 11.5113 30.2694 11.8262 31.1205 11.8262C31.9663 11.8262 32.6502 11.5113 33.1724 10.8816C33.6997 10.2468 33.9634 9.41133 33.9634 8.3753V8.20009C33.9634 7.57035 33.8433 6.99393 33.6031 6.47083C33.3629 5.94774 33.0262 5.54399 32.5928 5.25959C32.1595 4.97011 31.6635 4.82537 31.1048 4.82537C30.2694 4.82537 29.5881 5.14532 29.0607 5.78522C28.5334 6.42005 28.2698 7.25293 28.2698 8.28389V8.45148Z" fill="white"/>
<path d="M40.7534 4.97773C40.555 4.94218 40.3435 4.9244 40.119 4.9244C39.5343 4.9244 39.0383 5.08438 38.631 5.40433C38.229 5.7192 37.9418 6.17881 37.7695 6.78317V12.4432H36.8376V4.2007H37.7539L37.7695 5.51098C38.2655 4.53589 39.0617 4.04835 40.1582 4.04835C40.4192 4.04835 40.6255 4.08136 40.7769 4.14738L40.7534 4.97773Z" fill="white"/>
<path d="M56.1116 9.33532C55.9835 10.5034 55.5606 11.3972 54.843 12.0168C54.1305 12.6364 53.1796 12.9462 51.9904 12.9462C51.16 12.9462 50.4244 12.7405 49.7837 12.3291C49.148 11.9178 48.656 11.3363 48.3074 10.5847C47.9588 9.82794 47.782 8.96458 47.7769 7.99457V6.55479C47.7769 5.56955 47.9511 4.69603 48.2997 3.93424C48.6483 3.17245 49.148 2.58588 49.799 2.17451C50.4552 1.75807 51.2087 1.54985 52.0596 1.54985C53.2591 1.54985 54.2048 1.87234 54.8968 2.51732C55.5939 3.15722 55.9989 4.04343 56.1116 5.17596H55.1582C54.9224 3.2918 53.8895 2.34972 52.0596 2.34972C51.0446 2.34972 50.2347 2.72554 49.6299 3.47717C49.0302 4.2288 48.7303 5.26737 48.7303 6.59288V7.94886C48.7303 9.22867 49.0225 10.2495 49.6068 11.0113C50.1963 11.773 50.9908 12.1539 51.9904 12.1539C52.9797 12.1539 53.7255 11.9203 54.2279 11.4531C54.7302 10.9808 55.0403 10.2749 55.1582 9.33532H56.1116Z" fill="white"/>
<path d="M57.6879 8.55068C57.6879 7.75842 57.8417 7.04488 58.1492 6.41005C58.4619 5.77523 58.9002 5.28261 59.464 4.93218C60.033 4.57668 60.6763 4.39893 61.3939 4.39893C62.5011 4.39893 63.3982 4.78491 64.0851 5.55685C64.7719 6.32372 65.1154 7.34197 65.1154 8.61162V8.80207C65.1154 9.59941 64.959 10.318 64.6463 10.9579C64.3388 11.5927 63.9031 12.0828 63.3392 12.4282C62.7754 12.7735 62.1321 12.9462 61.4093 12.9462C60.3072 12.9462 59.4102 12.5628 58.7182 11.7959C58.0313 11.0239 57.6879 10.0032 57.6879 8.73351V8.55068ZM58.6105 8.80207C58.6105 9.78731 58.8668 10.5973 59.3794 11.2322C59.8972 11.8619 60.5738 12.1768 61.4093 12.1768C62.2397 12.1768 62.9112 11.8619 63.4238 11.2322C63.9415 10.5973 64.2004 9.76192 64.2004 8.72589V8.55068C64.2004 7.92093 64.0825 7.34451 63.8467 6.82142C63.6109 6.29832 63.2803 5.89458 62.8548 5.61018C62.4294 5.3207 61.9424 5.17596 61.3939 5.17596C60.5738 5.17596 59.9048 5.49591 59.3871 6.13581C58.8694 6.77063 58.6105 7.60352 58.6105 8.63447V8.80207Z" fill="white"/>
<path d="M68.0525 12.7938H67.1299V1.09277H68.0525V12.7938Z" fill="white"/>
<path d="M70.0517 8.55068C70.0517 7.75842 70.2054 7.04488 70.513 6.41005C70.8257 5.77523 71.2639 5.28261 71.8278 4.93218C72.3968 4.57668 73.0401 4.39893 73.7577 4.39893C74.8649 4.39893 75.762 4.78491 76.4488 5.55685C77.1357 6.32372 77.4791 7.34197 77.4791 8.61162V8.80207C77.4791 9.59941 77.3228 10.318 77.0101 10.9579C76.7026 11.5927 76.2669 12.0828 75.703 12.4282C75.1392 12.7735 74.4958 12.9462 73.7731 12.9462C72.671 12.9462 71.774 12.5628 71.082 11.7959C70.3951 11.0239 70.0517 10.0032 70.0517 8.73351V8.55068ZM70.9743 8.80207C70.9743 9.78731 71.2306 10.5973 71.7432 11.2322C72.2609 11.8619 72.9376 12.1768 73.7731 12.1768C74.6035 12.1768 75.275 11.8619 75.7876 11.2322C76.3053 10.5973 76.5642 9.76192 76.5642 8.72589V8.55068C76.5642 7.92093 76.4463 7.34451 76.2105 6.82142C75.9747 6.29832 75.6441 5.89458 75.2186 5.61018C74.7932 5.3207 74.3062 5.17596 73.7577 5.17596C72.9376 5.17596 72.2686 5.49591 71.7509 6.13581C71.2332 6.77063 70.9743 7.60352 70.9743 8.63447V8.80207Z" fill="white"/>
<path d="M83.2305 5.32831C83.0357 5.29276 82.8281 5.27499 82.6077 5.27499C82.0336 5.27499 81.5466 5.43496 81.1468 5.75492C80.7521 6.06979 80.4701 6.5294 80.301 7.13375V12.7938H79.386V4.55129H80.2856L80.301 5.86157C80.7879 4.88648 81.5697 4.39893 82.6461 4.39893C82.9024 4.39893 83.1049 4.43194 83.2535 4.49797L83.2305 5.32831Z" fill="white"/>
<path d="M96.543 7.49162H91.2156V11.9366H97.3409V12.7149H90.2534V1.81934H97.3018V2.60507H91.2156V6.71336H96.543V7.49162Z" fill="white"/>
<path d="M101.816 7.90319L104.1 4.61806H105.211L102.34 8.59165L105.336 12.7149H104.233L101.823 9.28759L99.4139 12.7149H98.3109L101.299 8.59165L98.4283 4.61806H99.5313L101.816 7.90319Z" fill="white"/>
<path d="M113.753 8.7488C113.753 10.011 113.461 11.0137 112.877 11.7571C112.293 12.4954 111.511 12.8646 110.53 12.8646C109.372 12.8646 108.486 12.4754 107.87 11.6972V15.8279H106.939V4.61806H107.808L107.855 5.76299C108.465 4.89993 109.349 4.4684 110.507 4.4684C111.518 4.4684 112.311 4.83507 112.885 5.56843C113.464 6.30178 113.753 7.3195 113.753 8.62158V8.7488ZM112.814 8.59165C112.814 7.55897 112.593 6.74329 112.149 6.14464C111.706 5.54598 111.088 5.24665 110.295 5.24665C109.722 5.24665 109.229 5.37885 108.817 5.64326C108.405 5.90767 108.089 6.29181 107.87 6.79568V10.6795C108.095 11.1434 108.415 11.4976 108.833 11.7421C109.25 11.9865 109.743 12.1088 110.311 12.1088C111.099 12.1088 111.711 11.8094 112.149 11.2108C112.593 10.6071 112.814 9.73409 112.814 8.59165Z" fill="white"/>
<path d="M119.112 12.8646C118.392 12.8646 117.74 12.6949 117.156 12.3557C116.577 12.0165 116.126 11.545 115.803 10.9414C115.479 10.3327 115.318 9.65177 115.318 8.89846V8.57668C115.318 7.79843 115.474 7.0975 115.787 6.4739C116.105 5.8503 116.546 5.36139 117.109 5.00719C117.672 4.64799 118.283 4.4684 118.94 4.4684C119.967 4.4684 120.781 4.80514 121.38 5.47863C121.985 6.14713 122.288 7.06258 122.288 8.22497V8.72635H116.249V8.89846C116.249 9.8164 116.522 10.5822 117.07 11.1958C117.623 11.8044 118.316 12.1088 119.151 12.1088C119.652 12.1088 120.092 12.0215 120.473 11.8469C120.859 11.6722 121.208 11.3929 121.521 11.0087L122.108 11.4353C121.42 12.3881 120.421 12.8646 119.112 12.8646ZM118.94 5.23168C118.236 5.23168 117.641 5.47863 117.156 5.97252C116.676 6.46642 116.384 7.12993 116.28 7.96306H121.357V7.86578C121.331 7.08752 121.099 6.45394 120.661 5.96504C120.223 5.47614 119.649 5.23168 118.94 5.23168Z" fill="white"/>
<path d="M128.022 5.38135C127.824 5.34643 127.613 5.32897 127.388 5.32897C126.804 5.32897 126.309 5.48611 125.902 5.80041C125.5 6.10972 125.214 6.5612 125.041 7.15487V12.7149H124.111V4.61806H125.026L125.041 5.90517C125.537 4.94732 126.332 4.4684 127.427 4.4684C127.688 4.4684 127.894 4.50082 128.045 4.56568L128.022 5.38135Z" fill="white"/>
<path d="M131.354 2.54521V4.61806H133.107V5.35142H131.354V10.7468C131.354 11.1958 131.438 11.5301 131.605 11.7496C131.777 11.9691 132.061 12.0788 132.458 12.0788C132.614 12.0788 132.867 12.0539 133.216 12.004L133.255 12.7374C133.01 12.8222 132.677 12.8646 132.254 12.8646C131.613 12.8646 131.146 12.6875 130.854 12.3333C130.562 11.9741 130.416 11.4477 130.416 10.7543V5.35142H128.859V4.61806H130.416V2.54521H131.354Z" fill="white"/>
<path d="M1 12.4432V1.35162H4.18748C5.12205 1.35162 5.96004 1.55984 6.70143 1.97628C7.44283 2.38765 8.01976 2.9793 8.43222 3.75125C8.84991 4.52319 9.05875 5.40179 9.05875 6.38704V7.40783C9.05875 8.39816 8.85252 9.27675 8.44005 10.0436C8.02759 10.8105 7.44544 11.4021 6.6936 11.8186C5.94698 12.235 5.08811 12.4432 4.11699 12.4432H1ZM1.96329 2.1515V11.651H4.12482C5.32567 11.651 6.28896 11.265 7.0147 10.4931C7.74043 9.71605 8.10329 8.66732 8.10329 7.34689V6.3718C8.10329 5.09708 7.74565 4.07628 7.03036 3.30941C6.31507 2.54255 5.37266 2.15657 4.20314 2.1515H1.96329Z" stroke="white" stroke-width="0.6" mask="url(#path-1-outside-1_918_148)"/>
<path d="M14.5722 12.5956C13.8517 12.5956 13.1991 12.4229 12.6143 12.0776C12.0348 11.7322 11.5831 11.2523 11.2594 10.6378C10.9357 10.0182 10.7739 9.325 10.7739 8.55813V8.23056C10.7739 7.4383 10.9305 6.72476 11.2438 6.08994C11.5623 5.45512 12.0034 4.95741 12.5673 4.59683C13.1312 4.23118 13.7421 4.04835 14.3999 4.04835C15.4285 4.04835 16.243 4.39115 16.8434 5.07676C17.449 5.75729 17.7519 6.68921 17.7519 7.87252V8.38292H11.7058V8.55813C11.7058 9.49259 11.98 10.2722 12.5282 10.8968C13.0816 11.5164 13.776 11.8262 14.6114 11.8262C15.1126 11.8262 15.5538 11.7373 15.9349 11.5596C16.3213 11.3818 16.6711 11.0974 16.9844 10.7064L17.5717 11.1406C16.8826 12.1106 15.8827 12.5956 14.5722 12.5956ZM14.3999 4.82537C13.6951 4.82537 13.0999 5.07676 12.6143 5.57954C12.134 6.08232 11.8416 6.75777 11.7372 7.6059H16.8199V7.50686C16.7938 6.71461 16.5615 6.06962 16.1229 5.57192C15.6843 5.07422 15.11 4.82537 14.3999 4.82537ZM15.4415 0.742188H16.5771L14.768 2.87519H13.9457L15.4415 0.742188Z" stroke="white" stroke-width="0.6" mask="url(#path-1-outside-1_918_148)"/>
<path d="M22.7093 11.8262C23.3619 11.8262 23.9075 11.6485 24.3461 11.293C24.7899 10.9324 25.0301 10.4677 25.0666 9.89888H25.9673C25.9411 10.4017 25.7793 10.8613 25.4817 11.2777C25.1841 11.6891 24.7873 12.0116 24.2913 12.2452C23.8005 12.4788 23.2732 12.5956 22.7093 12.5956C21.5972 12.5956 20.7148 12.2198 20.0622 11.4682C19.4148 10.7165 19.0911 9.70589 19.0911 8.43625V8.162C19.0911 7.34943 19.2373 6.63081 19.5296 6.00614C19.822 5.38148 20.2397 4.89901 20.7827 4.55875C21.3309 4.21848 21.9705 4.04835 22.7015 4.04835C23.6308 4.04835 24.3957 4.31751 24.9961 4.85584C25.6018 5.39417 25.9255 6.10264 25.9673 6.98123H25.0666C25.0248 6.33625 24.7847 5.81569 24.3461 5.41957C23.9128 5.02344 23.3645 4.82537 22.7015 4.82537C21.8556 4.82537 21.1978 5.12247 20.7279 5.71666C20.2632 6.31086 20.0309 7.14375 20.0309 8.21533V8.48195C20.0309 9.53322 20.2632 10.3534 20.7279 10.9425C21.1978 11.5316 21.8583 11.8262 22.7093 11.8262Z" stroke="white" stroke-width="0.6" mask="url(#path-1-outside-1_918_148)"/>
<path d="M27.33 8.20009C27.33 7.40783 27.4866 6.69429 27.7999 6.05947C28.1183 5.42464 28.5647 4.93202 29.1391 4.5816C29.7186 4.2261 30.3739 4.04835 31.1048 4.04835C32.2326 4.04835 33.1463 4.43432 33.8459 5.20626C34.5455 5.97313 34.8953 6.99139 34.8953 8.26103V8.45148C34.8953 9.24882 34.7361 9.96744 34.4176 10.6073C34.1043 11.2422 33.6605 11.7322 33.0862 12.0776C32.5119 12.4229 31.8566 12.5956 31.1205 12.5956C29.9979 12.5956 29.0842 12.2122 28.3794 11.4453C27.6798 10.6734 27.33 9.65257 27.33 8.38292V8.20009ZM28.2698 8.45148C28.2698 9.43673 28.5308 10.2468 29.0529 10.8816C29.5802 11.5113 30.2694 11.8262 31.1205 11.8262C31.9663 11.8262 32.6502 11.5113 33.1724 10.8816C33.6997 10.2468 33.9634 9.41133 33.9634 8.3753V8.20009C33.9634 7.57035 33.8433 6.99393 33.6031 6.47083C33.3629 5.94774 33.0262 5.54399 32.5928 5.25959C32.1595 4.97011 31.6635 4.82537 31.1048 4.82537C30.2694 4.82537 29.5881 5.14532 29.0607 5.78522C28.5334 6.42005 28.2698 7.25293 28.2698 8.28389V8.45148Z" stroke="white" stroke-width="0.6" mask="url(#path-1-outside-1_918_148)"/>
<path d="M40.7534 4.97773C40.555 4.94218 40.3435 4.9244 40.119 4.9244C39.5343 4.9244 39.0383 5.08438 38.631 5.40433C38.229 5.7192 37.9418 6.17881 37.7695 6.78317V12.4432H36.8376V4.2007H37.7539L37.7695 5.51098C38.2655 4.53589 39.0617 4.04835 40.1582 4.04835C40.4192 4.04835 40.6255 4.08136 40.7769 4.14738L40.7534 4.97773Z" stroke="white" stroke-width="0.6" mask="url(#path-1-outside-1_918_148)"/>
<path d="M56.1116 9.33532C55.9835 10.5034 55.5606 11.3972 54.843 12.0168C54.1305 12.6364 53.1796 12.9462 51.9904 12.9462C51.16 12.9462 50.4244 12.7405 49.7837 12.3291C49.148 11.9178 48.656 11.3363 48.3074 10.5847C47.9588 9.82794 47.782 8.96458 47.7769 7.99457V6.55479C47.7769 5.56955 47.9511 4.69603 48.2997 3.93424C48.6483 3.17245 49.148 2.58588 49.799 2.17451C50.4552 1.75807 51.2087 1.54985 52.0596 1.54985C53.2591 1.54985 54.2048 1.87234 54.8968 2.51732C55.5939 3.15722 55.9989 4.04343 56.1116 5.17596H55.1582C54.9224 3.2918 53.8895 2.34972 52.0596 2.34972C51.0446 2.34972 50.2347 2.72554 49.6299 3.47717C49.0302 4.2288 48.7303 5.26737 48.7303 6.59288V7.94886C48.7303 9.22867 49.0225 10.2495 49.6068 11.0113C50.1963 11.773 50.9908 12.1539 51.9904 12.1539C52.9797 12.1539 53.7255 11.9203 54.2279 11.4531C54.7302 10.9808 55.0403 10.2749 55.1582 9.33532H56.1116Z" stroke="white" stroke-width="0.6" mask="url(#path-1-outside-1_918_148)"/>
<path d="M57.6879 8.55068C57.6879 7.75842 57.8417 7.04488 58.1492 6.41005C58.4619 5.77523 58.9002 5.28261 59.464 4.93218C60.033 4.57668 60.6763 4.39893 61.3939 4.39893C62.5011 4.39893 63.3982 4.78491 64.0851 5.55685C64.7719 6.32372 65.1154 7.34197 65.1154 8.61162V8.80207C65.1154 9.59941 64.959 10.318 64.6463 10.9579C64.3388 11.5927 63.9031 12.0828 63.3392 12.4282C62.7754 12.7735 62.1321 12.9462 61.4093 12.9462C60.3072 12.9462 59.4102 12.5628 58.7182 11.7959C58.0313 11.0239 57.6879 10.0032 57.6879 8.73351V8.55068ZM58.6105 8.80207C58.6105 9.78731 58.8668 10.5973 59.3794 11.2322C59.8972 11.8619 60.5738 12.1768 61.4093 12.1768C62.2397 12.1768 62.9112 11.8619 63.4238 11.2322C63.9415 10.5973 64.2004 9.76192 64.2004 8.72589V8.55068C64.2004 7.92093 64.0825 7.34451 63.8467 6.82142C63.6109 6.29832 63.2803 5.89458 62.8548 5.61018C62.4294 5.3207 61.9424 5.17596 61.3939 5.17596C60.5738 5.17596 59.9048 5.49591 59.3871 6.13581C58.8694 6.77063 58.6105 7.60352 58.6105 8.63447V8.80207Z" stroke="white" stroke-width="0.6" mask="url(#path-1-outside-1_918_148)"/>
<path d="M68.0525 12.7938H67.1299V1.09277H68.0525V12.7938Z" stroke="white" stroke-width="0.6" mask="url(#path-1-outside-1_918_148)"/>
<path d="M70.0517 8.55068C70.0517 7.75842 70.2054 7.04488 70.513 6.41005C70.8257 5.77523 71.2639 5.28261 71.8278 4.93218C72.3968 4.57668 73.0401 4.39893 73.7577 4.39893C74.8649 4.39893 75.762 4.78491 76.4488 5.55685C77.1357 6.32372 77.4791 7.34197 77.4791 8.61162V8.80207C77.4791 9.59941 77.3228 10.318 77.0101 10.9579C76.7026 11.5927 76.2669 12.0828 75.703 12.4282C75.1392 12.7735 74.4958 12.9462 73.7731 12.9462C72.671 12.9462 71.774 12.5628 71.082 11.7959C70.3951 11.0239 70.0517 10.0032 70.0517 8.73351V8.55068ZM70.9743 8.80207C70.9743 9.78731 71.2306 10.5973 71.7432 11.2322C72.2609 11.8619 72.9376 12.1768 73.7731 12.1768C74.6035 12.1768 75.275 11.8619 75.7876 11.2322C76.3053 10.5973 76.5642 9.76192 76.5642 8.72589V8.55068C76.5642 7.92093 76.4463 7.34451 76.2105 6.82142C75.9747 6.29832 75.6441 5.89458 75.2186 5.61018C74.7932 5.3207 74.3062 5.17596 73.7577 5.17596C72.9376 5.17596 72.2686 5.49591 71.7509 6.13581C71.2332 6.77063 70.9743 7.60352 70.9743 8.63447V8.80207Z" stroke="white" stroke-width="0.6" mask="url(#path-1-outside-1_918_148)"/>
<path d="M83.2305 5.32831C83.0357 5.29276 82.8281 5.27499 82.6077 5.27499C82.0336 5.27499 81.5466 5.43496 81.1468 5.75492C80.7521 6.06979 80.4701 6.5294 80.301 7.13375V12.7938H79.386V4.55129H80.2856L80.301 5.86157C80.7879 4.88648 81.5697 4.39893 82.6461 4.39893C82.9024 4.39893 83.1049 4.43194 83.2535 4.49797L83.2305 5.32831Z" stroke="white" stroke-width="0.6" mask="url(#path-1-outside-1_918_148)"/>
<path d="M96.543 7.49162H91.2156V11.9366H97.3409V12.7149H90.2534V1.81934H97.3018V2.60507H91.2156V6.71336H96.543V7.49162Z" stroke="white" stroke-width="0.6" mask="url(#path-1-outside-1_918_148)"/>
<path d="M101.816 7.90319L104.1 4.61806H105.211L102.34 8.59165L105.336 12.7149H104.233L101.823 9.28759L99.4139 12.7149H98.3109L101.299 8.59165L98.4283 4.61806H99.5313L101.816 7.90319Z" stroke="white" stroke-width="0.6" mask="url(#path-1-outside-1_918_148)"/>
<path d="M113.753 8.7488C113.753 10.011 113.461 11.0137 112.877 11.7571C112.293 12.4954 111.511 12.8646 110.53 12.8646C109.372 12.8646 108.486 12.4754 107.87 11.6972V15.8279H106.939V4.61806H107.808L107.855 5.76299C108.465 4.89993 109.349 4.4684 110.507 4.4684C111.518 4.4684 112.311 4.83507 112.885 5.56843C113.464 6.30178 113.753 7.3195 113.753 8.62158V8.7488ZM112.814 8.59165C112.814 7.55897 112.593 6.74329 112.149 6.14464C111.706 5.54598 111.088 5.24665 110.295 5.24665C109.722 5.24665 109.229 5.37885 108.817 5.64326C108.405 5.90767 108.089 6.29181 107.87 6.79568V10.6795C108.095 11.1434 108.415 11.4976 108.833 11.7421C109.25 11.9865 109.743 12.1088 110.311 12.1088C111.099 12.1088 111.711 11.8094 112.149 11.2108C112.593 10.6071 112.814 9.73409 112.814 8.59165Z" stroke="white" stroke-width="0.6" mask="url(#path-1-outside-1_918_148)"/>
<path d="M119.112 12.8646C118.392 12.8646 117.74 12.6949 117.156 12.3557C116.577 12.0165 116.126 11.545 115.803 10.9414C115.479 10.3327 115.318 9.65177 115.318 8.89846V8.57668C115.318 7.79843 115.474 7.0975 115.787 6.4739C116.105 5.8503 116.546 5.36139 117.109 5.00719C117.672 4.64799 118.283 4.4684 118.94 4.4684C119.967 4.4684 120.781 4.80514 121.38 5.47863C121.985 6.14713 122.288 7.06258 122.288 8.22497V8.72635H116.249V8.89846C116.249 9.8164 116.522 10.5822 117.07 11.1958C117.623 11.8044 118.316 12.1088 119.151 12.1088C119.652 12.1088 120.092 12.0215 120.473 11.8469C120.859 11.6722 121.208 11.3929 121.521 11.0087L122.108 11.4353C121.42 12.3881 120.421 12.8646 119.112 12.8646ZM118.94 5.23168C118.236 5.23168 117.641 5.47863 117.156 5.97252C116.676 6.46642 116.384 7.12993 116.28 7.96306H121.357V7.86578C121.331 7.08752 121.099 6.45394 120.661 5.96504C120.223 5.47614 119.649 5.23168 118.94 5.23168Z" stroke="white" stroke-width="0.6" mask="url(#path-1-outside-1_918_148)"/>
<path d="M128.022 5.38135C127.824 5.34643 127.613 5.32897 127.388 5.32897C126.804 5.32897 126.309 5.48611 125.902 5.80041C125.5 6.10972 125.214 6.5612 125.041 7.15487V12.7149H124.111V4.61806H125.026L125.041 5.90517C125.537 4.94732 126.332 4.4684 127.427 4.4684C127.688 4.4684 127.894 4.50082 128.045 4.56568L128.022 5.38135Z" stroke="white" stroke-width="0.6" mask="url(#path-1-outside-1_918_148)"/>
<path d="M131.354 2.54521V4.61806H133.107V5.35142H131.354V10.7468C131.354 11.1958 131.438 11.5301 131.605 11.7496C131.777 11.9691 132.061 12.0788 132.458 12.0788C132.614 12.0788 132.867 12.0539 133.216 12.004L133.255 12.7374C133.01 12.8222 132.677 12.8646 132.254 12.8646C131.613 12.8646 131.146 12.6875 130.854 12.3333C130.562 11.9741 130.416 11.4477 130.416 10.7543V5.35142H128.859V4.61806H130.416V2.54521H131.354Z" stroke="white" stroke-width="0.6" mask="url(#path-1-outside-1_918_148)"/>
</svg>
